<svg xmlns="http://www.w3.org/2000/svg" width="212.913" height="58" viewBox="0 0 212.913 58">
  <g id="Logo" transform="translate(-782 -233.999)">
    <path id="Caminho_7" data-name="Caminho 7" d="M378.029,298.105l-27.2-17.075A11.916,11.916,0,0,0,332.6,291.19v24.758a11.024,11.024,0,0,0,12.237-3.167,1.51,1.51,0,0,1,2.182-.047l2.13,2.141a1.394,1.394,0,0,1-.207,2.138c-2.977,2.006-9.316,7.343-6.488,17.54q.029.106.05.213a2.909,2.909,0,0,0,3.043,2.417,11.812,11.812,0,0,0,5.252-1.774L378,318.444A12.011,12.011,0,0,0,378.029,298.105ZM345.884,309.4l-1.687-.262a1.146,1.146,0,0,1-.776-1.763l2.125-3.23a1.642,1.642,0,0,1,1.253-.741l1.842-.143A15.223,15.223,0,0,0,345.884,309.4Zm6.129,5.623a1.089,1.089,0,0,1-.77-.322l-3.868-3.889a1.1,1.1,0,0,1-.306-.951,12.324,12.324,0,0,1,.717-2.543l6.933,6.969a12.17,12.17,0,0,1-2.53.721,1.065,1.065,0,0,1-.176.016Zm6.6.256a1.654,1.654,0,0,1-.737,1.259l-3.214,2.136a1.138,1.138,0,0,1-1.753-.78l-.261-1.7a15.065,15.065,0,0,0,6.107-2.771Zm4.189-8.313a16.969,16.969,0,0,1-6.88,6.767.642.642,0,0,0-.05-.058l-7.476-7.515a.6.6,0,0,0-.058-.05,16.963,16.963,0,0,1,6.732-6.915,16.388,16.388,0,0,1,7.44-1.7c.354,0,.667.011.932.025a1.1,1.1,0,0,1,1.03,1.037,16.969,16.969,0,0,1-1.671,8.415Z" transform="translate(449.4 -45.193)" fill="#63bcbc"/>
    <path id="Caminho_8" data-name="Caminho 8" d="M421.787,367.147a3.094,3.094,0,1,0,2.2-.921A3.115,3.115,0,0,0,421.787,367.147Zm3.524,3.524a1.869,1.869,0,1,1,.547-1.321A1.869,1.869,0,0,1,425.311,370.67Z" transform="translate(383.209 -110.326)" fill="#63bcbc"/>
    <g id="Grupo_2" data-name="Grupo 2" transform="translate(841.271 245.447)">
      <path id="Caminho_1" data-name="Caminho 1" d="M290.748,557.405v5.2h-.876V551.473h3.992c2.195,0,3.356,1.176,3.356,2.927a2.52,2.52,0,0,1-2.083,2.608c1.145.271,1.908,1.018,1.908,2.91v.43a7.416,7.416,0,0,0,.143,2.258h-.876a7.442,7.442,0,0,1-.159-2.322V560c0-1.829-.541-2.592-2.672-2.592Zm0-.8h2.687c1.956,0,2.863-.732,2.863-2.195,0-1.367-.891-2.147-2.624-2.147h-2.927Z" transform="translate(-253.558 -551.314)" fill="#ececec"/>
      <path id="Caminho_2" data-name="Caminho 2" d="M349.859,556.483c0,3.038-1.622,5.8-5.057,5.8-3.133,0-4.962-2.528-4.962-5.725,0-3.149,1.765-5.725,5.073-5.725C347.966,550.838,349.859,553.239,349.859,556.483Zm-9.1.032c0,2.56,1.415,4.978,4.087,4.978,2.877,0,4.087-2.354,4.087-4.993,0-2.592-1.368-4.866-4.055-4.866C342.018,551.633,340.762,554,340.762,556.515Z" transform="translate(-291.025 -550.837)" fill="#ececec"/>
      <path id="Caminho_3" data-name="Caminho 3" d="M408.786,559.159a4.065,4.065,0,0,1-4.183,3.1c-3.2,0-4.882-2.544-4.882-5.677,0-3.006,1.654-5.741,4.9-5.741a3.9,3.9,0,0,1,4.183,3.2h-.859a3.224,3.224,0,0,0-3.371-2.4c-2.767,0-3.928,2.528-3.928,4.93,0,2.385,1.145,4.9,3.992,4.9a3.265,3.265,0,0,0,3.292-2.306Z" transform="translate(-335.926 -550.841)" fill="#ececec"/>
      <path id="Caminho_4" data-name="Caminho 4" d="M458.266,551.475h.859v5.788c.891-.859,4.071-3.848,6.059-5.788h1.145l-4.993,4.739,5.28,6.393H465.55l-4.834-5.836-1.59,1.4v4.437h-.859Z" transform="translate(-379.825 -551.315)" fill="#ececec"/>
      <path id="Caminho_5" data-name="Caminho 5" d="M517.247,557.13H511.57v4.675h6.219l-.127.8h-6.95V551.468h6.822v.8H511.57v4.071h5.677Z" transform="translate(-419.15 -551.31)" fill="#ececec"/>
      <path id="Caminho_6" data-name="Caminho 6" d="M560.469,552.27h-3.737v-.8H565.1v.8h-3.753v10.337h-.876Z" transform="translate(-453.657 -551.315)" fill="#ececec"/>
      <circle id="Elipse_1" data-name="Elipse 1" cx="2.126" cy="2.126" r="2.126" transform="translate(149.39 18.287)" fill="#63bcbc"/>
      <path id="Caminho_9" data-name="Caminho 9" d="M161.094,625.681v.524a2.4,2.4,0,0,1-2.4,2.4h-4.33v12.7a.755.755,0,0,1-.755.755H152.2a.755.755,0,0,1-.755-.755V628.6h-4.33a2.4,2.4,0,0,1-2.4-2.4v-.524Z" transform="translate(-144.714 -606.957)" fill="#ececec"/>
      <path id="Caminho_10" data-name="Caminho 10" d="M232.721,646.865h-1.288a3.256,3.256,0,0,1-2.9-1.773l-.592-1.157-3-5.9a.64.64,0,0,0-1.141,0l-3,5.9-.65,1.274a3.041,3.041,0,0,1-2.707,1.655h-1.42l1.489-2.93,5.662-11.108a1.346,1.346,0,0,1,2.4,0l5.662,11.108Z" transform="translate(-198.181 -611.766)" fill="#ececec"/>
      <path id="Caminho_11" data-name="Caminho 11" d="M318.255,641.776v.231h-8.3a5.182,5.182,0,0,1-2.3-.535,5.276,5.276,0,0,1-2.92-4.681V625.628h.876a2.043,2.043,0,0,1,2.044,2.044v9.411a2.334,2.334,0,0,0,2.005,2h5.906a2.688,2.688,0,0,1,2.688,2.688Z" transform="translate(-264.704 -606.918)" fill="#ececec"/>
      <path id="Caminho_12" data-name="Caminho 12" d="M389.727,630.051v1.52a0,0,0,0,0,0,0h10.532a0,0,0,0,1,0,0v.11a2.806,2.806,0,0,1-2.8,2.806h-7.73a0,0,0,0,0,0,0v3.087a1.518,1.518,0,0,0,1.513,1.513H400.3a2.891,2.891,0,0,1,2.891,2.891v.025a0,0,0,0,1,0,0H391.23a4.423,4.423,0,0,1-4.422-4.423V630.06a4.432,4.432,0,0,1,4.432-4.433h11.946a0,0,0,0,1,0,0h0a2.916,2.916,0,0,1-2.916,2.916H391.23A1.5,1.5,0,0,0,389.727,630.051Z" transform="translate(-326.243 -606.917)" fill="#ececec"/>
      <path id="Caminho_13" data-name="Caminho 13" d="M496.779,625.627v16.389l-2.929-2.258-10.53-8.116v7.811a2.564,2.564,0,0,1-2.564,2.564h-.366V625.685l2.929,2.258,10.53,8.117v-8.038a2.4,2.4,0,0,1,2.4-2.4Z" transform="translate(-396.414 -606.916)" fill="#ececec"/>
      <path id="Caminho_14" data-name="Caminho 14" d="M590.35,625.682v.352a2.57,2.57,0,0,1-2.57,2.57h-4.158v12.717a.741.741,0,0,1-.741.741H581.44a.741.741,0,0,1-.741-.741V628.6H576.54a2.57,2.57,0,0,1-2.57-2.57v-.352Z" transform="translate(-466.583 -606.958)" fill="#ececec"/>
      <path id="Caminho_15" data-name="Caminho 15" d="M681.68,633.337a5.143,5.143,0,0,0-3.825-1.693h-5.888a1.5,1.5,0,0,1-1.5-1.5v-.088a1.5,1.5,0,0,1,1.5-1.5h6.657a1.5,1.5,0,0,1,1.321.79,1.756,1.756,0,0,0,1.4.8h1.606a.088.088,0,0,0,.088-.088,4.428,4.428,0,0,0-4.428-4.428h-6.638a4.428,4.428,0,0,0-4.428,4.428v.088a4.37,4.37,0,0,0,.788,2.511,3.873,3.873,0,0,0,.575.681,4.341,4.341,0,0,0,3.056,1.236h5.887a2.266,2.266,0,0,1,2.243,2.6,2.31,2.31,0,0,1-2.309,1.92h-5.063a2.26,2.26,0,0,1-2.051-1.312,1.636,1.636,0,0,0-1.487-.945h-1.64a5.175,5.175,0,0,0,5.179,5.179h5.028A5.25,5.25,0,0,0,683,637.5a5.165,5.165,0,0,0-1.126-3.932A1.4,1.4,0,0,0,681.68,633.337Z" transform="translate(-536.75 -606.919)" fill="#ececec"/>
      <circle id="Elipse_2" data-name="Elipse 2" cx="1.376" cy="1.376" r="1.376" transform="translate(24.907 31.797)" fill="#63bcbc"/>
    </g>
  </g>
</svg>
