<svg xmlns="http://www.w3.org/2000/svg" width="1366" height="1882" viewBox="0 0 1366 1882">
  <g id="Starts" transform="translate(-1.52 -31.466)">
    <ellipse id="Elipse_1" data-name="Elipse 1" cx="0.464" cy="0.383" rx="0.464" ry="0.383" transform="translate(45.135 1912.7)" fill="#c4c4c4"/>
    <ellipse id="Elipse_2" data-name="Elipse 2" cx="0.464" cy="0.383" rx="0.464" ry="0.383" transform="translate(75.759 1777.56)" fill="#c4c4c4"/>
    <ellipse id="Elipse_3" data-name="Elipse 3" cx="0.464" cy="0.383" rx="0.464" ry="0.383" transform="translate(103.599 1462.791)" fill="#c4c4c4"/>
    <ellipse id="Elipse_4" data-name="Elipse 4" cx="0.464" cy="0.383" rx="0.464" ry="0.383" transform="translate(211.247 1804.43)" fill="#c4c4c4"/>
    <ellipse id="Elipse_5" data-name="Elipse 5" cx="0.928" cy="0.768" rx="0.928" ry="0.768" transform="translate(1.52 1844.365)" fill="#c4c4c4"/>
    <ellipse id="Elipse_6" data-name="Elipse 6" cx="0.464" cy="0.383" rx="0.464" ry="0.383" transform="translate(263.214 1479.445)" fill="#c4c4c4"/>
    <ellipse id="Elipse_7" data-name="Elipse 7" cx="0.464" cy="0.383" rx="0.464" ry="0.383" transform="translate(52.559 1501.662)" fill="#c4c4c4"/>
    <ellipse id="Elipse_8" data-name="Elipse 8" cx="0.464" cy="0.383" rx="0.464" ry="0.383" transform="translate(214.031 1776.02)" fill="#c4c4c4"/>
    <ellipse id="Elipse_9" data-name="Elipse 9" cx="0.464" cy="0.383" rx="0.464" ry="0.383" transform="translate(105.455 1528.951)" fill="#c4c4c4"/>
    <ellipse id="Elipse_10" data-name="Elipse 10" cx="0.464" cy="0.383" rx="0.464" ry="0.383" transform="translate(128.655 1493.707)" fill="#c4c4c4"/>
    <ellipse id="Elipse_11" data-name="Elipse 11" cx="0.928" cy="0.768" rx="0.928" ry="0.768" transform="translate(971.87 1809.806)" fill="#c4c4c4"/>
    <ellipse id="Elipse_12" data-name="Elipse 12" cx="0.928" cy="0.768" rx="0.928" ry="0.768" transform="translate(963.041 1779.855)" fill="#c4c4c4"/>
    <ellipse id="Elipse_13" data-name="Elipse 13" cx="0.928" cy="0.768" rx="0.928" ry="0.768" transform="translate(222.382 1530.665)" fill="#c4c4c4"/>
    <ellipse id="Elipse_14" data-name="Elipse 14" cx="0.928" cy="0.768" rx="0.928" ry="0.768" transform="translate(622.229 1305.915)" fill="#c4c4c4"/>
    <ellipse id="Elipse_15" data-name="Elipse 15" cx="0.928" cy="0.768" rx="0.928" ry="0.768" transform="translate(253.934 1762.965)" fill="#c4c4c4"/>
    <ellipse id="Elipse_16" data-name="Elipse 16" cx="0.928" cy="0.768" rx="0.928" ry="0.768" transform="translate(224.238 1515.251)" fill="#c4c4c4"/>
    <ellipse id="Elipse_17" data-name="Elipse 17" cx="0.928" cy="0.768" rx="0.928" ry="0.768" transform="translate(710.523 1259.111)" fill="#c4c4c4"/>
    <ellipse id="Elipse_18" data-name="Elipse 18" cx="0.928" cy="0.768" rx="0.928" ry="0.768" transform="translate(135.151 1479.528)" fill="#c4c4c4"/>
    <ellipse id="Elipse_19" data-name="Elipse 19" cx="0.928" cy="0.768" rx="0.928" ry="0.768" transform="translate(552.476 1506.322)" fill="#c4c4c4"/>
    <ellipse id="Elipse_20" data-name="Elipse 20" cx="0.464" cy="0.383" rx="0.464" ry="0.383" transform="translate(636.377 1269.63)" fill="#c4c4c4"/>
    <ellipse id="Elipse_21" data-name="Elipse 21" cx="0.464" cy="0.383" rx="0.464" ry="0.383" transform="translate(728.206 1318.818)" fill="#c4c4c4"/>
    <ellipse id="Elipse_22" data-name="Elipse 22" cx="0.464" cy="0.383" rx="0.464" ry="0.383" transform="translate(1062.849 1309.222)" fill="#c4c4c4"/>
    <ellipse id="Elipse_23" data-name="Elipse 23" cx="0.464" cy="0.383" rx="0.464" ry="0.383" transform="translate(114.735 1865.86)" fill="#c4c4c4"/>
    <ellipse id="Elipse_24" data-name="Elipse 24" cx="0.464" cy="0.383" rx="0.464" ry="0.383" transform="translate(1020.47 1762.97)" fill="#c4c4c4"/>
    <ellipse id="Elipse_25" data-name="Elipse 25" cx="0.464" cy="0.383" rx="0.464" ry="0.383" transform="translate(527.771 1400.403)" fill="#c4c4c4"/>
    <ellipse id="Elipse_26" data-name="Elipse 26" cx="0.464" cy="0.383" rx="0.464" ry="0.383" transform="translate(1022.239 1895.81)" fill="#c4c4c4"/>
    <ellipse id="Elipse_27" data-name="Elipse 27" cx="0.464" cy="0.383" rx="0.464" ry="0.383" transform="translate(572.803 1354.812)" fill="#c4c4c4"/>
    <ellipse id="Elipse_28" data-name="Elipse 28" cx="0.464" cy="0.383" rx="0.464" ry="0.383" transform="translate(566.622 1275.628)" fill="#c4c4c4"/>
    <ellipse id="Elipse_29" data-name="Elipse 29" cx="0.928" cy="0.768" rx="0.928" ry="0.768" transform="translate(304.369 1814.416)" fill="#c4c4c4"/>
    <ellipse id="Elipse_30" data-name="Elipse 30" cx="0.464" cy="0.383" rx="0.464" ry="0.383" transform="translate(214.031 1898.11)" fill="#c4c4c4"/>
    <ellipse id="Elipse_31" data-name="Elipse 31" cx="0.464" cy="0.383" rx="0.464" ry="0.383" transform="translate(538.367 1281.626)" fill="#c4c4c4"/>
    <ellipse id="Elipse_32" data-name="Elipse 32" cx="0.464" cy="0.383" rx="0.464" ry="0.383" transform="translate(510.112 1261.23)" fill="#c4c4c4"/>
    <ellipse id="Elipse_33" data-name="Elipse 33" cx="0.464" cy="0.383" rx="0.464" ry="0.383" transform="translate(322.039 1309.222)" fill="#c4c4c4"/>
    <ellipse id="Elipse_34" data-name="Elipse 34" cx="0.464" cy="0.383" rx="0.464" ry="0.383" transform="translate(313.209 1262.43)" fill="#c4c4c4"/>
    <ellipse id="Elipse_35" data-name="Elipse 35" cx="0.464" cy="0.383" rx="0.464" ry="0.383" transform="translate(243.726 1285.226)" fill="#c4c4c4"/>
    <ellipse id="Elipse_36" data-name="Elipse 36" cx="0.464" cy="0.383" rx="0.464" ry="0.383" transform="translate(309.677 1300.822)" fill="#c4c4c4"/>
    <ellipse id="Elipse_37" data-name="Elipse 37" cx="0.928" cy="0.768" rx="0.928" ry="0.768" transform="translate(1179.137 1272.314)" fill="#c4c4c4"/>
    <ellipse id="Elipse_38" data-name="Elipse 38" cx="0.464" cy="0.383" rx="0.464" ry="0.383" transform="translate(1012.525 1522.289)" fill="#c4c4c4"/>
    <ellipse id="Elipse_39" data-name="Elipse 39" cx="0.928" cy="0.768" rx="0.928" ry="0.768" transform="translate(153.711 464.912)" fill="#c4c4c4"/>
    <ellipse id="Elipse_40" data-name="Elipse 40" cx="0.928" cy="0.768" rx="0.928" ry="0.768" transform="translate(144.431 471.408)" fill="#c4c4c4"/>
    <ellipse id="Elipse_41" data-name="Elipse 41" cx="0.464" cy="0.383" rx="0.464" ry="0.383" transform="translate(90.607 604.955)" fill="#c4c4c4"/>
    <ellipse id="Elipse_42" data-name="Elipse 42" cx="0.464" cy="0.383" rx="0.464" ry="0.383" transform="translate(199.183 650.547)" fill="#c4c4c4"/>
    <ellipse id="Elipse_43" data-name="Elipse 43" cx="0.464" cy="0.383" rx="0.464" ry="0.383" transform="translate(279.091 619.353)" fill="#c4c4c4"/>
    <ellipse id="Elipse_44" data-name="Elipse 44" cx="0.928" cy="0.768" rx="0.928" ry="0.768" transform="translate(228.878 693.893)" fill="#c4c4c4"/>
    <ellipse id="Elipse_45" data-name="Elipse 45" cx="0.464" cy="0.383" rx="0.464" ry="0.383" transform="translate(154.639 639.749)" fill="#c4c4c4"/>
    <ellipse id="Elipse_46" data-name="Elipse 46" cx="0.464" cy="0.383" rx="0.464" ry="0.383" transform="translate(204.751 429.805)" fill="#c4c4c4"/>
    <ellipse id="Elipse_47" data-name="Elipse 47" cx="0.464" cy="0.383" rx="0.464" ry="0.383" transform="translate(206.607 493.378)" fill="#c4c4c4"/>
    <ellipse id="Elipse_48" data-name="Elipse 48" cx="0.464" cy="0.383" rx="0.464" ry="0.383" transform="translate(92.463 454.985)" fill="#c4c4c4"/>
    <ellipse id="Elipse_49" data-name="Elipse 49" cx="0.464" cy="0.383" rx="0.464" ry="0.383" transform="translate(85.967 415.617)" fill="#c4c4c4"/>
    <ellipse id="Elipse_50" data-name="Elipse 50" cx="0.464" cy="0.383" rx="0.464" ry="0.383" transform="translate(85.967 153.559)" fill="#c4c4c4"/>
    <ellipse id="Elipse_51" data-name="Elipse 51" cx="0.464" cy="0.383" rx="0.464" ry="0.383" transform="translate(196.399 155.095)" fill="#c4c4c4"/>
    <ellipse id="Elipse_52" data-name="Elipse 52" cx="0.464" cy="0.383" rx="0.464" ry="0.383" transform="translate(1181.001 1531.178)" fill="#c4c4c4"/>
    <ellipse id="Elipse_53" data-name="Elipse 53" cx="0.928" cy="0.768" rx="0.928" ry="0.768" transform="translate(1075.179 1394.718)" fill="#c4c4c4"/>
    <ellipse id="Elipse_54" data-name="Elipse 54" cx="0.464" cy="0.383" rx="0.464" ry="0.383" transform="translate(263.214 1479.586)" fill="#c4c4c4"/>
    <ellipse id="Elipse_55" data-name="Elipse 55" cx="0.928" cy="0.768" rx="0.928" ry="0.768" transform="translate(284.944 1455.92)" fill="#c4c4c4"/>
    <ellipse id="Elipse_56" data-name="Elipse 56" cx="0.464" cy="0.383" rx="0.464" ry="0.383" transform="translate(269.71 1435.197)" fill="#c4c4c4"/>
    <ellipse id="Elipse_57" data-name="Elipse 57" cx="0.928" cy="0.768" rx="0.928" ry="0.768" transform="translate(434.162 1427.118)" fill="#c4c4c4"/>
    <ellipse id="Elipse_58" data-name="Elipse 58" cx="0.928" cy="0.768" rx="0.928" ry="0.768" transform="translate(531.286 1316.715)" fill="#c4c4c4"/>
    <ellipse id="Elipse_59" data-name="Elipse 59" cx="0.928" cy="0.768" rx="0.928" ry="0.768" transform="translate(84.111 1257.913)" fill="#c4c4c4"/>
    <ellipse id="Elipse_60" data-name="Elipse 60" cx="0.464" cy="0.383" rx="0.464" ry="0.383" transform="translate(1353.601 1821.33)" fill="#c4c4c4"/>
    <ellipse id="Elipse_61" data-name="Elipse 61" cx="0.928" cy="0.768" rx="0.928" ry="0.768" transform="translate(19.152 1476.321)" fill="#c4c4c4"/>
    <ellipse id="Elipse_62" data-name="Elipse 62" cx="0.464" cy="0.383" rx="0.464" ry="0.383" transform="translate(1351.751 1912.7)" fill="#c4c4c4"/>
    <ellipse id="Elipse_63" data-name="Elipse 63" cx="0.928" cy="0.768" rx="0.928" ry="0.768" transform="translate(60.911 735.893)" fill="#c4c4c4"/>
    <ellipse id="Elipse_64" data-name="Elipse 64" cx="0.928" cy="0.768" rx="0.928" ry="0.768" transform="translate(51.631 689.092)" fill="#c4c4c4"/>
    <ellipse id="Elipse_65" data-name="Elipse 65" cx="0.464" cy="0.383" rx="0.464" ry="0.383" transform="translate(50.703 1149.651)" fill="#c4c4c4"/>
    <ellipse id="Elipse_66" data-name="Elipse 66" cx="0.464" cy="0.383" rx="0.464" ry="0.383" transform="translate(130.511 1254.032)" fill="#c4c4c4"/>
    <ellipse id="Elipse_67" data-name="Elipse 67" cx="0.464" cy="0.383" rx="0.464" ry="0.383" transform="translate(239.087 1164.049)" fill="#c4c4c4"/>
    <ellipse id="Elipse_68" data-name="Elipse 68" cx="0.928" cy="0.768" rx="0.928" ry="0.768" transform="translate(160.207 1297.514)" fill="#c4c4c4"/>
    <ellipse id="Elipse_69" data-name="Elipse 69" cx="0.464" cy="0.383" rx="0.464" ry="0.383" transform="translate(85.967 1243.233)" fill="#c4c4c4"/>
    <ellipse id="Elipse_70" data-name="Elipse 70" cx="0.464" cy="0.383" rx="0.464" ry="0.383" transform="translate(103.599 709.337)" fill="#c4c4c4"/>
    <ellipse id="Elipse_71" data-name="Elipse 71" cx="0.464" cy="0.383" rx="0.464" ry="0.383" transform="translate(1003.695 1021.275)" fill="#c4c4c4"/>
    <ellipse id="Elipse_72" data-name="Elipse 72" cx="0.928" cy="0.768" rx="0.928" ry="0.768" transform="translate(969.225 1064.706)" fill="#c4c4c4"/>
    <ellipse id="Elipse_73" data-name="Elipse 73" cx="0.464" cy="0.383" rx="0.464" ry="0.383" transform="translate(961.306 1010.479)" fill="#c4c4c4"/>
    <ellipse id="Elipse_74" data-name="Elipse 74" cx="0.464" cy="0.383" rx="0.464" ry="0.383" transform="translate(902.152 825.715)" fill="#c4c4c4"/>
    <ellipse id="Elipse_75" data-name="Elipse 75" cx="0.464" cy="0.383" rx="0.464" ry="0.383" transform="translate(818.269 823.315)" fill="#c4c4c4"/>
    <ellipse id="Elipse_76" data-name="Elipse 76" cx="0.464" cy="0.383" rx="0.464" ry="0.383" transform="translate(809.439 776.523)" fill="#c4c4c4"/>
    <ellipse id="Elipse_77" data-name="Elipse 77" cx="0.464" cy="0.383" rx="0.464" ry="0.383" transform="translate(805.907 814.917)" fill="#c4c4c4"/>
    <ellipse id="Elipse_78" data-name="Elipse 78" cx="0.464" cy="0.383" rx="0.464" ry="0.383" transform="translate(726.44 942.09)" fill="#c4c4c4"/>
    <ellipse id="Elipse_79" data-name="Elipse 79" cx="0.464" cy="0.383" rx="0.464" ry="0.383" transform="translate(728.206 1036.873)" fill="#c4c4c4"/>
    <ellipse id="Elipse_80" data-name="Elipse 80" cx="0.928" cy="0.768" rx="0.928" ry="0.768" transform="translate(872.102 1106.706)" fill="#c4c4c4"/>
    <ellipse id="Elipse_81" data-name="Elipse 81" cx="0.928" cy="0.768" rx="0.928" ry="0.768" transform="translate(863.272 1059.905)" fill="#c4c4c4"/>
    <ellipse id="Elipse_82" data-name="Elipse 82" cx="0.464" cy="0.383" rx="0.464" ry="0.383" transform="translate(912.747 1080.064)" fill="#c4c4c4"/>
    <ellipse id="Elipse_83" data-name="Elipse 83" cx="0.464" cy="0.383" rx="0.464" ry="0.383" transform="translate(175.055 991.281)" fill="#c4c4c4"/>
    <ellipse id="Elipse_84" data-name="Elipse 84" cx="0.464" cy="0.383" rx="0.464" ry="0.383" transform="translate(60.911 952.89)" fill="#c4c4c4"/>
    <ellipse id="Elipse_85" data-name="Elipse 85" cx="0.464" cy="0.383" rx="0.464" ry="0.383" transform="translate(54.415 873.705)" fill="#c4c4c4"/>
    <ellipse id="Elipse_86" data-name="Elipse 86" cx="0.464" cy="0.383" rx="0.464" ry="0.383" transform="translate(492.452 883.302)" fill="#c4c4c4"/>
    <ellipse id="Elipse_87" data-name="Elipse 87" cx="0.464" cy="0.383" rx="0.464" ry="0.383" transform="translate(654.919 1222.837)" fill="#c4c4c4"/>
    <ellipse id="Elipse_88" data-name="Elipse 88" cx="0.464" cy="0.383" rx="0.464" ry="0.383" transform="translate(730.855 1327.216)" fill="#c4c4c4"/>
    <ellipse id="Elipse_89" data-name="Elipse 89" cx="0.464" cy="0.383" rx="0.464" ry="0.383" transform="translate(1090.223 1237.235)" fill="#c4c4c4"/>
    <ellipse id="Elipse_90" data-name="Elipse 90" cx="0.464" cy="0.383" rx="0.464" ry="0.383" transform="translate(773.238 1064.468)" fill="#c4c4c4"/>
    <ellipse id="Elipse_91" data-name="Elipse 91" cx="0.464" cy="0.383" rx="0.464" ry="0.383" transform="translate(664.632 1026.075)" fill="#c4c4c4"/>
    <ellipse id="Elipse_92" data-name="Elipse 92" cx="0.464" cy="0.383" rx="0.464" ry="0.383" transform="translate(658.451 946.89)" fill="#c4c4c4"/>
    <ellipse id="Elipse_93" data-name="Elipse 93" cx="0.464" cy="0.383" rx="0.464" ry="0.383" transform="translate(580.75 1023.675)" fill="#c4c4c4"/>
    <ellipse id="Elipse_94" data-name="Elipse 94" cx="0.464" cy="0.383" rx="0.464" ry="0.383" transform="translate(568.388 1015.277)" fill="#c4c4c4"/>
    <ellipse id="Elipse_95" data-name="Elipse 95" cx="0.464" cy="0.383" rx="0.464" ry="0.383" transform="translate(405.921 975.685)" fill="#c4c4c4"/>
    <ellipse id="Elipse_96" data-name="Elipse 96" cx="0.928" cy="0.768" rx="0.928" ry="0.768" transform="translate(589.56 1194.311)" fill="#c4c4c4"/>
    <ellipse id="Elipse_97" data-name="Elipse 97" cx="0.464" cy="0.383" rx="0.464" ry="0.383" transform="translate(1074.333 1432.797)" fill="#c4c4c4"/>
    <ellipse id="Elipse_98" data-name="Elipse 98" cx="0.464" cy="0.383" rx="0.464" ry="0.383" transform="translate(1076.094 1527.578)" fill="#c4c4c4"/>
    <ellipse id="Elipse_99" data-name="Elipse 99" cx="0.928" cy="0.768" rx="0.928" ry="0.768" transform="translate(1178.207 1529.124)" fill="#c4c4c4"/>
    <ellipse id="Elipse_100" data-name="Elipse 100" cx="0.928" cy="0.768" rx="0.928" ry="0.768" transform="translate(21.007 70.629)" fill="#c4c4c4"/>
    <ellipse id="Elipse_101" data-name="Elipse 101" cx="0.928" cy="0.768" rx="0.928" ry="0.768" transform="translate(959.511 1470.322)" fill="#c4c4c4"/>
    <ellipse id="Elipse_102" data-name="Elipse 102" cx="0.928" cy="0.768" rx="0.928" ry="0.768" transform="translate(993.944 1446.318)" fill="#c4c4c4"/>
    <ellipse id="Elipse_103" data-name="Elipse 103" cx="0.928" cy="0.768" rx="0.928" ry="0.768" transform="translate(444.757 473.084)" fill="#c4c4c4"/>
    <ellipse id="Elipse_104" data-name="Elipse 104" cx="0.928" cy="0.768" rx="0.928" ry="0.768" transform="translate(435.928 426.282)" fill="#c4c4c4"/>
    <ellipse id="Elipse_105" data-name="Elipse 105" cx="0.464" cy="0.383" rx="0.464" ry="0.383" transform="translate(563.973 733.332)" fill="#c4c4c4"/>
    <ellipse id="Elipse_106" data-name="Elipse 106" cx="0.464" cy="0.383" rx="0.464" ry="0.383" transform="translate(493.335 417.359)" fill="#c4c4c4"/>
    <ellipse id="Elipse_107" data-name="Elipse 107" cx="0.464" cy="0.383" rx="0.464" ry="0.383" transform="translate(495.101 607.356)" fill="#c4c4c4"/>
    <ellipse id="Elipse_108" data-name="Elipse 108" cx="0.464" cy="0.383" rx="0.464" ry="0.383" transform="translate(485.388 437.744)" fill="#c4c4c4"/>
    <ellipse id="Elipse_109" data-name="Elipse 109" cx="0.928" cy="0.768" rx="0.928" ry="0.768" transform="translate(612.516 463.482)" fill="#c4c4c4"/>
    <ellipse id="Elipse_110" data-name="Elipse 110" cx="0.928" cy="0.768" rx="0.928" ry="0.768" transform="translate(682.269 647.09)" fill="#c4c4c4"/>
    <ellipse id="Elipse_111" data-name="Elipse 111" cx="0.928" cy="0.768" rx="0.928" ry="0.768" transform="translate(432.396 133.595)" fill="#c4c4c4"/>
    <ellipse id="Elipse_112" data-name="Elipse 112" cx="0.928" cy="0.768" rx="0.928" ry="0.768" transform="translate(466.831 118.237)" fill="#c4c4c4"/>
    <ellipse id="Elipse_113" data-name="Elipse 113" cx="0.928" cy="0.768" rx="0.928" ry="0.768" transform="translate(963.926 1332.316)" fill="#c4c4c4"/>
    <ellipse id="Elipse_114" data-name="Elipse 114" cx="0.464" cy="0.383" rx="0.464" ry="0.383" transform="translate(1190.281 1778.32)" fill="#c4c4c4"/>
    <ellipse id="Elipse_115" data-name="Elipse 115" cx="0.928" cy="0.768" rx="0.928" ry="0.768" transform="translate(1081.363 1272.314)" fill="#c4c4c4"/>
    <ellipse id="Elipse_116" data-name="Elipse 116" cx="0.464" cy="0.383" rx="0.464" ry="0.383" transform="translate(1366.591 1779.86)" fill="#c4c4c4"/>
    <ellipse id="Elipse_117" data-name="Elipse 117" cx="0.464" cy="0.383" rx="0.464" ry="0.383" transform="translate(1152.231 1523.88)" fill="#c4c4c4"/>
    <ellipse id="Elipse_118" data-name="Elipse 118" cx="0.928" cy="0.768" rx="0.928" ry="0.768" transform="translate(1038.976 1261.512)" fill="#c4c4c4"/>
    <ellipse id="Elipse_119" data-name="Elipse 119" cx="0.928" cy="0.768" rx="0.928" ry="0.768" transform="translate(1239.457 1334.715)" fill="#c4c4c4"/>
    <ellipse id="Elipse_120" data-name="Elipse 120" cx="0.464" cy="0.383" rx="0.464" ry="0.383" transform="translate(447.42 39.145)" fill="#c4c4c4"/>
    <ellipse id="Elipse_121" data-name="Elipse 121" cx="0.464" cy="0.383" rx="0.464" ry="0.383" transform="translate(369.719 88.289)" fill="#c4c4c4"/>
    <ellipse id="Elipse_122" data-name="Elipse 122" cx="0.464" cy="0.383" rx="0.464" ry="0.383" transform="translate(279.656 72.932)" fill="#c4c4c4"/>
    <ellipse id="Elipse_123" data-name="Elipse 123" cx="0.464" cy="0.383" rx="0.464" ry="0.383" transform="translate(357.358 82.914)" fill="#c4c4c4"/>
    <ellipse id="Elipse_124" data-name="Elipse 124" cx="0.464" cy="0.383" rx="0.464" ry="0.383" transform="translate(277.89 164.31)" fill="#c4c4c4"/>
    <ellipse id="Elipse_125" data-name="Elipse 125" cx="0.928" cy="0.768" rx="0.928" ry="0.768" transform="translate(207.534 172.757)" fill="#c4c4c4"/>
    <ellipse id="Elipse_126" data-name="Elipse 126" cx="0.464" cy="0.383" rx="0.464" ry="0.383" transform="translate(292.017 31.466)" fill="#c4c4c4"/>
    <ellipse id="Elipse_127" data-name="Elipse 127" cx="0.464" cy="0.383" rx="0.464" ry="0.383" transform="translate(891.556 583.359)" fill="#c4c4c4"/>
    <ellipse id="Elipse_128" data-name="Elipse 128" cx="0.464" cy="0.383" rx="0.464" ry="0.383" transform="translate(920.694 411.601)" fill="#c4c4c4"/>
    <ellipse id="Elipse_129" data-name="Elipse 129" cx="0.928" cy="0.768" rx="0.928" ry="0.768" transform="translate(816.476 466.5)" fill="#c4c4c4"/>
    <ellipse id="Elipse_130" data-name="Elipse 130" cx="0.928" cy="0.768" rx="0.928" ry="0.768" transform="translate(850.028 476.683)" fill="#c4c4c4"/>
    <ellipse id="Elipse_131" data-name="Elipse 131" cx="0.928" cy="0.768" rx="0.928" ry="0.768" transform="translate(1090.193 452.211)" fill="#c4c4c4"/>
    <ellipse id="Elipse_132" data-name="Elipse 132" cx="0.928" cy="0.768" rx="0.928" ry="0.768" transform="translate(1061.935 425.219)" fill="#c4c4c4"/>
    <ellipse id="Elipse_133" data-name="Elipse 133" cx="0.928" cy="0.768" rx="0.928" ry="0.768" transform="translate(977.17 462.006)" fill="#c4c4c4"/>
    <ellipse id="Elipse_134" data-name="Elipse 134" cx="0.464" cy="0.383" rx="0.464" ry="0.383" transform="translate(1080.508 603.757)" fill="#c4c4c4"/>
    <ellipse id="Elipse_135" data-name="Elipse 135" cx="0.928" cy="0.768" rx="0.928" ry="0.768" transform="translate(866.804 105.182)" fill="#c4c4c4"/>
  </g>
</svg>
